<svg width="32" height="27" viewBox="0 0 32 27" fill="none" xmlns="http://www.w3.org/2000/svg">
<path d="M28.3931 5.68369H25.0133V2.30395C25.0133 1.70637 24.7759 1.13327 24.3534 0.710718C23.9308 0.288167 23.3577 0.0507813 22.7602 0.0507812H9.24117C8.6436 0.0507813 8.0705 0.288167 7.64795 0.710718C7.2254 1.13327 6.98801 1.70637 6.98801 2.30395V5.68369H3.60826C2.7119 5.68369 1.85225 6.03977 1.21842 6.6736C0.584595 7.30742 0.228516 8.16708 0.228516 9.06344V24.8356C0.228516 25.4332 0.465902 26.0063 0.888452 26.4288C1.311 26.8514 1.8841 27.0888 2.48168 27.0888H29.5197C30.1172 27.0888 30.6903 26.8514 31.1129 26.4288C31.5354 26.0063 31.7728 25.4332 31.7728 24.8356V9.06344C31.7728 8.16708 31.4167 7.30742 30.7829 6.6736C30.1491 6.03977 29.2894 5.68369 28.3931 5.68369ZM9.24117 2.30395H22.7602V5.68369H9.24117V2.30395ZM29.5197 24.8356H2.48168V14.6964H11.4943V20.3293H20.507V14.6964H29.5197V24.8356ZM13.7475 14.6964H18.2538V18.0761H13.7475V14.6964ZM2.48168 12.4432V9.06344C2.48168 8.76465 2.60037 8.4781 2.81165 8.26683C3.02292 8.05555 3.30947 7.93686 3.60826 7.93686H28.3931C28.6919 7.93686 28.9784 8.05555 29.1897 8.26683C29.401 8.4781 29.5197 8.76465 29.5197 9.06344V12.4432H2.48168Z" fill="white"/>
</svg>
