<svg width="32" height="18" viewBox="0 0 32 18" fill="none" xmlns="http://www.w3.org/2000/svg">
<path d="M28.7664 8.18829C28.3827 8.19108 28.0027 8.26429 27.6445 8.40441L23.8177 5.21461C23.9118 4.86687 23.9788 4.50612 23.9788 4.12588C23.9788 1.87368 22.2011 0.0634766 19.9892 0.0634766C17.7773 0.0634766 15.9996 1.87368 15.9996 4.12588C15.9996 4.76937 16.1592 5.36898 16.4177 5.90847L11.7753 11.4951C11.5895 11.4597 11.401 11.4406 11.212 11.4382C10.9263 11.4382 10.6566 11.487 10.3949 11.5585L6.30475 7.39368C6.37656 7.12881 6.42444 6.8542 6.42444 6.56333C6.42444 4.76287 5.00093 3.3134 3.23273 3.3134C1.46452 3.3134 0.0410156 4.76287 0.0410156 6.56333C0.0410156 8.36379 1.46452 9.81325 3.23273 9.81325C3.51838 9.81325 3.78808 9.7645 4.0498 9.693L8.13998 13.8578C8.06327 14.1278 8.023 14.4071 8.02029 14.6881C8.02029 16.4886 9.44379 17.9381 11.212 17.9381C12.9802 17.9381 14.4037 16.4886 14.4037 14.6881C14.4037 14.303 14.3271 13.9407 14.2074 13.5978L18.8561 8.00467C19.2184 8.11192 19.5934 8.18829 19.9892 8.18829C20.619 8.18474 21.2389 8.0282 21.7973 7.73167L25.6258 10.9215C25.5957 11.0921 25.5787 11.2649 25.5747 11.4382C25.5747 13.2387 26.9982 14.6881 28.7664 14.6881C30.5346 14.6881 31.9581 13.2387 31.9581 11.4382C31.9581 9.63776 30.5346 8.18829 28.7664 8.18829Z" fill="white"/>
</svg>
