<svg width="32" height="27" viewBox="0 0 32 27" fill="none" xmlns="http://www.w3.org/2000/svg">
<g clip-path="url(#clip0_993_758)">
<path d="M15.8996 12.7044C18.5898 12.7044 20.6821 10.5697 20.6821 7.94993C20.6821 5.33012 18.4901 3.29248 15.8 3.29248C13.1099 3.29248 11.0176 5.42715 11.0176 7.94993C11.0176 10.5697 13.2095 12.7044 15.8996 12.7044ZM15.8 5.23309C15.8996 5.23309 15.8996 5.23309 15.8 5.23309C17.3942 5.23309 18.6894 6.49448 18.6894 8.04696C18.6894 9.59945 17.3942 10.7638 15.8 10.7638C14.2059 10.7638 13.0103 9.50242 13.0103 8.04696C13.0103 6.49448 14.3055 5.23309 15.8 5.23309Z" fill="white"/>
<path d="M30.6467 12.122C28.7536 10.4725 26.2628 9.59924 23.6723 9.69627H22.8752C22.676 10.4725 22.3771 11.1517 21.9785 11.7339C22.5763 11.6369 23.0745 11.6369 23.6723 11.6369C25.5653 11.5398 27.4584 12.122 28.9529 13.1894V20.1755H30.9456V12.4131L30.6467 12.122Z" fill="white"/>
<path d="M21.3793 3.4859C21.8774 2.32154 23.2723 1.73936 24.5675 2.22451C25.7632 2.70966 26.361 4.06808 25.8628 5.32948C25.4643 6.20275 24.5675 6.78493 23.6708 6.78493C23.4716 6.78493 23.1727 6.78493 22.9734 6.6879C23.073 7.17305 23.073 7.6582 23.073 8.04632V8.6285C23.2723 8.6285 23.4716 8.72553 23.6708 8.72553C26.1617 8.72553 28.1544 6.78493 28.1544 4.4562C28.1544 2.03045 26.1617 0.0898438 23.7705 0.0898438C22.1763 0.0898438 20.7814 0.866085 19.9844 2.22451C20.4825 2.5156 20.9807 2.90372 21.3793 3.4859Z" fill="white"/>
<path d="M10.0218 11.8306C9.62322 11.2484 9.32432 10.5692 9.12505 9.79296H8.32798C5.73749 9.69593 3.24664 10.5692 1.35359 12.1217L1.05469 12.4128V20.1752H3.04737V13.189C4.64151 12.1217 6.43493 11.5395 8.32798 11.6365C8.92578 11.6365 9.52359 11.7336 10.0218 11.8306Z" fill="white"/>
<path d="M8.32838 8.62915C8.52765 8.62915 8.72692 8.62915 8.92619 8.53212V7.94994C8.92619 7.46479 8.92619 6.97963 9.02582 6.59151C8.82655 6.68854 8.52765 6.68854 8.32838 6.68854C7.03314 6.68854 5.93717 5.62121 5.93717 4.35982C5.93717 3.09843 7.03314 2.03109 8.32838 2.03109C9.32472 2.03109 10.2214 2.61327 10.62 3.48655C11.0185 3.0014 11.6163 2.51624 12.1145 2.12812C10.8192 0.0904882 8.12912 -0.588723 6.0368 0.67267C3.94449 1.93406 3.24705 4.55388 4.54229 6.59151C5.33936 7.85291 6.73424 8.62915 8.32838 8.62915Z" fill="white"/>
<path d="M24.0704 17.9435L23.8711 17.6524C21.8784 15.5177 19.0887 14.2563 16.0997 14.3534C13.1106 14.2563 10.2212 15.5177 8.22856 17.6524L8.0293 17.9435V25.3178C8.0293 26.1911 8.72674 26.9673 9.72308 26.9673H22.4762C23.3729 26.9673 24.17 26.1911 24.17 25.3178V17.9435H24.0704ZM22.0777 25.0267H10.022V18.6227C11.6161 17.0702 13.8081 16.294 16.0997 16.294C18.2916 16.1969 20.4836 17.0702 22.0777 18.6227V25.0267Z" fill="white"/>
</g>
<defs>
<clipPath id="clip0_993_758">
<rect width="32" height="26.353" fill="white"/>
</clipPath>
</defs>
</svg>
