<svg width="19" height="26" viewBox="0 0 19 26" fill="none" xmlns="http://www.w3.org/2000/svg">
<path d="M4.80552 18.4128C4.37554 17.9715 4.59968 18.0959 3.5626 17.811C3.09205 17.6815 2.67841 17.4327 2.30434 17.1346L0.0594728 22.7835C-0.157741 23.3304 0.247988 23.9246 0.822936 23.9022L3.42999 23.8001L5.22312 25.7441C5.61895 26.1726 6.31364 26.0391 6.53085 25.4922L9.10624 19.0115C8.56989 19.3182 7.97466 19.498 7.35914 19.498C6.39429 19.498 5.48783 19.1125 4.80552 18.4128ZM18.9407 22.7835L16.6959 17.1346C16.3218 17.4332 15.9081 17.6815 15.4376 17.811C14.3951 18.0974 14.6237 17.9725 14.1947 18.4128C13.5124 19.1125 12.6054 19.498 11.6406 19.498C11.025 19.498 10.4298 19.3177 9.89346 19.0115L12.4688 25.4922C12.6861 26.0391 13.3812 26.1726 13.7766 25.7441L15.5702 23.8001L18.1773 23.9022C18.7522 23.9246 19.1579 23.3299 18.9407 22.7835ZM13.0131 17.2636C13.7692 16.4739 13.8558 16.542 14.9324 16.2409C15.6197 16.0484 16.157 15.4873 16.3411 14.7692C16.7112 13.327 16.6152 13.5012 17.6251 12.446C18.1283 11.9204 18.3247 11.1541 18.1406 10.4361C17.771 8.99488 17.7705 9.19597 18.1406 7.75328C18.3247 7.03523 18.1283 6.26894 17.6251 5.74336C16.6152 4.68812 16.7112 4.86179 16.3411 3.42012C16.157 2.70207 15.6197 2.14094 14.9324 1.94848C13.5529 1.56203 13.7192 1.66308 12.7083 0.607343C12.2051 0.0817571 11.4713 -0.123907 10.7841 0.068554C9.4051 0.454491 9.59757 0.454999 8.21611 0.068554C7.52885 -0.123907 6.79507 0.0812493 6.29187 0.607343C5.282 1.66258 5.44825 1.56203 4.06828 1.94848C3.38101 2.14094 2.84367 2.70207 2.6596 3.42012C2.28999 4.86179 2.38549 4.68812 1.37562 5.74336C0.872416 6.26894 0.675488 7.03523 0.860046 7.75328C1.22966 9.19343 1.23015 8.99234 0.860046 10.4355C0.675983 11.1536 0.872416 11.9199 1.37562 12.446C2.38549 13.5012 2.2895 13.327 2.6596 14.7692C2.84367 15.4873 3.38101 16.0484 4.06828 16.2409C5.17562 16.5506 5.25825 16.5019 5.98708 17.2636C6.64169 17.9476 7.66145 18.07 8.44817 17.5591C8.76277 17.3542 9.12771 17.2453 9.50035 17.2453C9.87298 17.2453 10.2379 17.3542 10.5525 17.5591C11.3387 18.07 12.3585 17.9476 13.0131 17.2636ZM4.83223 8.93343C4.83223 6.24051 6.92223 4.05742 9.5001 4.05742C12.078 4.05742 14.168 6.24051 14.168 8.93343C14.168 11.6264 12.078 13.8094 9.5001 13.8094C6.92223 13.8094 4.83223 11.6264 4.83223 8.93343Z" fill="white"/>
</svg>
